<svg data-v-423bf9ae="" xmlns="http://www.w3.org/2000/svg" viewBox="0 0 724.6675383745954 163" class="iconAbove"><!----><!----><!----><g data-v-423bf9ae="" id="60863278-ff12-4bc9-827d-3b1f84b120e9" fill="#120E32" transform="matrix(6.11224319582544,0,0,6.11224319582544,-8.618264832928276,83.56306742133174)"><path d="M7.55 6.55L7.55 6.55L7.55 6.55Q7.55 7.64 6.96 8.32L6.96 8.32L6.96 8.32Q6.38 8.99 5.25 9.18L5.25 9.18L7.77 12.84L6.34 12.84L4.06 9.24L2.52 9.24L2.52 12.84L1.41 12.84L1.41 4.03L4.48 4.03L4.48 4.03Q5.96 4.03 6.75 4.75L6.75 4.75L6.75 4.75Q7.55 5.46 7.55 6.55ZM2.52 8.47L4.40 8.47L4.40 8.47Q5.39 8.47 5.90 7.99L5.90 7.99L5.90 7.99Q6.41 7.50 6.41 6.71L6.41 6.71L6.41 6.71Q6.41 5.92 5.92 5.45L5.92 5.45L5.92 5.45Q5.42 4.98 4.48 4.98L4.48 4.98L2.52 4.98L2.52 8.47ZM12.31 12.10L12.31 12.10L12.31 12.10Q13.69 12.10 13.89 10.88L13.89 10.88L15.02 10.88L15.02 10.88Q14.87 11.89 14.13 12.44L14.13 12.44L14.13 12.44Q13.40 12.99 12.31 12.99L12.31 12.99L12.31 12.99Q10.96 12.99 10.12 12.03L10.12 12.03L10.12 12.03Q9.28 11.07 9.28 9.48L9.28 9.48L9.28 9.48Q9.28 7.88 10.13 6.93L10.13 6.93L10.13 6.93Q10.98 5.98 12.38 5.98L12.38 5.98L12.38 5.98Q13.79 5.98 14.48 7.07L14.48 7.07L14.48 7.07Q15.18 8.16 14.97 9.73L14.97 9.73L10.39 9.73L10.39 9.73Q10.39 10.77 10.89 11.43L10.89 11.43L10.89 11.43Q11.40 12.10 12.31 12.10ZM13.12 7.03L13.12 7.03L13.12 7.03Q12.80 6.86 12.33 6.86L12.33 6.86L12.33 6.86Q11.48 6.86 10.98 7.44L10.98 7.44L10.98 7.44Q10.49 8.02 10.40 8.89L10.40 8.89L13.97 8.89L13.97 8.89Q13.97 7.49 13.12 7.03ZM19.44 5.98L19.44 5.98L19.44 5.98Q20.62 5.98 21.32 6.59L21.32 6.59L21.32 6.59Q22.02 7.20 22.23 8.11L22.23 8.11L21.11 8.20L21.11 8.20Q20.93 7.62 20.52 7.29L20.52 7.29L20.52 7.29Q20.12 6.96 19.63 6.96L19.63 6.96L19.63 6.96Q18.73 6.96 18.18 7.63L18.18 7.63L18.18 7.63Q17.63 8.30 17.63 9.46L17.63 9.46L17.63 9.46Q17.63 10.61 18.17 11.31L18.17 11.31L18.17 11.31Q18.70 12.01 19.51 12.01L19.51 12.01L19.51 12.01Q20.31 12.01 20.71 11.64L20.71 11.64L20.71 11.64Q21.11 11.27 21.11 10.58L21.11 10.58L22.25 10.58L22.25 10.58Q22.25 11.66 21.50 12.33L21.50 12.33L21.50 12.33Q20.75 12.99 19.54 12.99L19.54 12.99L19.54 12.99Q18.27 12.99 17.38 12.03L17.38 12.03L17.38 12.03Q16.49 11.06 16.49 9.46L16.49 9.46L16.49 9.46Q16.49 7.85 17.37 6.92L17.37 6.92L17.37 6.92Q18.26 5.98 19.44 5.98ZM27.15 7.08L27.15 7.08L27.15 7.08Q25.56 7.08 25.51 9.58L25.51 9.58L25.51 12.84L24.40 12.84L24.40 6.13L25.51 6.13L25.51 7.42L25.51 7.42Q26.01 6.02 27.29 6.02L27.29 6.02L27.29 6.02Q27.69 6.02 28.06 6.15L28.06 6.15L28.00 7.22L28.00 7.22Q27.58 7.08 27.15 7.08ZM34.30 12.84L34.30 11.51L34.30 11.51Q33.61 12.96 32.07 12.96L32.07 12.96L32.07 12.96Q30.94 12.96 30.25 12.33L30.25 12.33L30.25 12.33Q29.55 11.70 29.55 10.39L29.55 10.39L29.55 6.13L30.66 6.13L30.66 10.30L30.66 10.30Q30.66 12.00 32.23 12.00L32.23 12.00L32.23 12.00Q33.14 12.00 33.70 11.30L33.70 11.30L33.70 11.30Q34.27 10.60 34.30 9.51L34.30 9.51L34.30 6.13L35.41 6.13L35.41 12.84L34.30 12.84ZM38.30 12.84L38.30 6.13L39.41 6.13L39.41 12.84L38.30 12.84ZM38.85 4.56L38.85 4.56L38.85 4.56Q38.51 4.56 38.33 4.38L38.33 4.38L38.33 4.38Q38.14 4.19 38.14 3.87L38.14 3.87L38.14 3.87Q38.14 3.56 38.33 3.37L38.33 3.37L38.33 3.37Q38.51 3.18 38.85 3.18L38.85 3.18L38.85 3.18Q39.19 3.18 39.39 3.37L39.39 3.37L39.39 3.37Q39.59 3.56 39.59 3.87L39.59 3.87L39.59 3.87Q39.59 4.19 39.39 4.38L39.39 4.38L39.39 4.38Q39.19 4.56 38.85 4.56ZM45.77 11.86L45.92 12.64L45.92 12.64Q44.72 13.20 43.72 12.88L43.72 12.88L43.72 12.88Q43.01 12.66 42.71 11.94L42.71 11.94L42.71 11.94Q42.56 11.59 42.56 11.10L42.56 11.10L42.56 6.99L41.48 6.99L41.48 6.15L42.56 6.15L42.56 4.28L43.65 4.28L43.65 6.15L45.75 6.15L45.75 6.99L43.65 6.99L43.65 11.09L43.65 11.09Q43.65 12.11 44.60 12.11L44.60 12.11L44.60 12.11Q45.12 12.11 45.77 11.86L45.77 11.86ZM48.62 6.15L48.75 7.43L48.75 7.43Q49.41 5.98 51.00 5.98L51.00 5.98L51.00 5.98Q51.87 5.98 52.46 6.41L52.46 6.41L52.46 6.41Q53.05 6.83 53.31 7.59L53.31 7.59L53.31 7.59Q53.94 5.98 55.65 5.98L55.65 5.98L55.65 5.98Q56.85 5.98 57.51 6.76L57.51 6.76L57.51 6.76Q58.17 7.55 58.17 8.90L58.17 8.90L58.17 12.84L57.08 12.84L57.08 8.90L57.08 8.90Q57.08 7.94 56.62 7.45L56.62 7.45L56.62 7.45Q56.17 6.96 55.31 6.96L55.31 6.96L55.31 6.96Q54.46 6.96 53.99 7.66L53.99 7.66L53.99 7.66Q53.52 8.36 53.52 9.59L53.52 9.59L53.52 12.84L52.43 12.84L52.43 8.90L52.43 8.90Q52.43 7.94 51.98 7.45L51.98 7.45L51.98 7.45Q51.52 6.96 50.68 6.96L50.68 6.96L50.68 6.96Q49.84 6.96 49.32 7.64L49.32 7.64L49.32 7.64Q48.80 8.33 48.78 9.55L48.78 9.55L48.78 12.84L47.67 12.84L47.67 6.15L48.62 6.15ZM63.08 12.10L63.08 12.10L63.08 12.10Q64.47 12.10 64.67 10.88L64.67 10.88L65.80 10.88L65.80 10.88Q65.65 11.89 64.91 12.44L64.91 12.44L64.91 12.44Q64.18 12.99 63.08 12.99L63.08 12.99L63.08 12.99Q61.74 12.99 60.90 12.03L60.90 12.03L60.90 12.03Q60.06 11.07 60.06 9.48L60.06 9.48L60.06 9.48Q60.06 7.88 60.91 6.93L60.91 6.93L60.91 6.93Q61.75 5.98 63.16 5.98L63.16 5.98L63.16 5.98Q64.57 5.98 65.26 7.07L65.26 7.07L65.26 7.07Q65.95 8.16 65.74 9.73L65.74 9.73L61.17 9.73L61.17 9.73Q61.17 10.77 61.67 11.43L61.67 11.43L61.67 11.43Q62.17 12.10 63.08 12.10ZM63.90 7.03L63.90 7.03L63.90 7.03Q63.57 6.86 63.11 6.86L63.11 6.86L63.11 6.86Q62.26 6.86 61.76 7.44L61.76 7.44L61.76 7.44Q61.26 8.02 61.18 8.89L61.18 8.89L64.75 8.89L64.75 8.89Q64.75 7.49 63.90 7.03ZM68.92 6.15L69.05 7.43L69.05 7.43Q69.71 5.98 71.30 5.98L71.30 5.98L71.30 5.98Q72.49 5.98 73.16 6.76L73.16 6.76L73.16 6.76Q73.82 7.55 73.82 8.90L73.82 8.90L73.82 12.84L72.73 12.84L72.73 8.90L72.73 8.90Q72.73 7.94 72.27 7.45L72.27 7.45L72.27 7.45Q71.82 6.96 70.98 6.96L70.98 6.96L70.98 6.96Q70.14 6.96 69.62 7.64L69.62 7.64L69.62 7.64Q69.10 8.33 69.08 9.55L69.08 9.55L69.08 12.84L67.97 12.84L67.97 6.15L68.92 6.15ZM79.77 11.86L79.93 12.64L79.93 12.64Q78.72 13.20 77.73 12.88L77.73 12.88L77.73 12.88Q77.01 12.66 76.72 11.94L76.72 11.94L76.72 11.94Q76.57 11.59 76.57 11.10L76.57 11.10L76.57 6.99L75.49 6.99L75.49 6.15L76.57 6.15L76.57 4.28L77.66 4.28L77.66 6.15L79.76 6.15L79.76 6.99L77.66 6.99L77.66 11.09L77.66 11.09Q77.66 12.11 78.61 12.11L78.61 12.11L78.61 12.11Q79.13 12.11 79.77 11.86L79.77 11.86ZM87.84 4.03L87.84 4.03Q89.29 4.03 90.05 4.77L90.05 4.77L90.05 4.77Q90.82 5.50 90.82 6.75L90.82 6.75L90.82 6.75Q90.82 7.99 90.05 8.71L90.05 8.71L90.05 8.71Q89.29 9.44 87.84 9.44L87.84 9.44L86.10 9.44L86.10 12.84L84.99 12.84L84.99 4.03L87.84 4.03ZM86.10 8.48L87.84 8.48L87.84 8.48Q88.75 8.48 89.21 8.02L89.21 8.02L89.21 8.02Q89.68 7.56 89.68 6.76L89.68 6.76L89.68 6.76Q89.68 5.95 89.21 5.47L89.21 5.47L89.21 5.47Q88.75 4.98 87.84 4.98L87.84 4.98L86.10 4.98L86.10 8.48ZM95.19 5.98L95.19 5.98L95.19 5.98Q96.59 5.98 97.45 6.89L97.45 6.89L97.45 6.89Q98.31 7.80 98.31 9.49L98.31 9.49L98.31 9.49Q98.31 11.17 97.45 12.08L97.45 12.08L97.45 12.08Q96.59 12.99 95.19 12.99L95.19 12.99L95.19 12.99Q93.79 12.99 92.92 12.08L92.92 12.08L92.92 12.08Q92.06 11.17 92.06 9.49L92.06 9.49L92.06 9.49Q92.06 7.80 92.92 6.89L92.92 6.89L92.92 6.89Q93.79 5.98 95.19 5.98ZM97.19 9.49L97.19 9.49L97.19 9.49Q97.19 8.29 96.68 7.61L96.68 7.61L96.68 7.61Q96.18 6.93 95.21 6.93L95.21 6.93L95.21 6.93Q94.23 6.93 93.72 7.61L93.72 7.61L93.72 7.61Q93.20 8.29 93.20 9.49L93.20 9.49L93.20 9.49Q93.20 10.68 93.69 11.36L93.69 11.36L93.69 11.36Q94.18 12.04 95.15 12.04L95.15 12.04L95.15 12.04Q96.12 12.04 96.66 11.36L96.66 11.36L96.66 11.36Q97.19 10.68 97.19 9.49ZM103.15 7.08L103.15 7.08L103.15 7.08Q101.57 7.08 101.51 9.58L101.51 9.58L101.51 12.84L100.41 12.84L100.41 6.13L101.51 6.13L101.51 7.42L101.51 7.42Q102.02 6.02 103.29 6.02L103.29 6.02L103.29 6.02Q103.70 6.02 104.06 6.15L104.06 6.15L104.01 7.22L104.01 7.22Q103.59 7.08 103.15 7.08ZM109.10 11.86L109.26 12.64L109.26 12.64Q108.05 13.20 107.06 12.88L107.06 12.88L107.06 12.88Q106.34 12.66 106.05 11.94L106.05 11.94L106.05 11.94Q105.90 11.59 105.90 11.10L105.90 11.10L105.90 6.99L104.82 6.99L104.82 6.15L105.90 6.15L105.90 4.28L106.99 4.28L106.99 6.15L109.09 6.15L109.09 6.99L106.99 6.99L106.99 11.09L106.99 11.09Q106.99 12.11 107.94 12.11L107.94 12.11L107.94 12.11Q108.46 12.11 109.10 11.86L109.10 11.86ZM115.16 9.35L115.16 8.50L115.16 8.50Q115.16 7.59 114.79 7.20L114.79 7.20L114.79 7.20Q114.41 6.80 113.69 6.80L113.69 6.80L113.69 6.80Q112.97 6.80 112.52 7.09L112.52 7.09L112.52 7.09Q112.08 7.38 112.08 7.99L112.08 7.99L110.87 7.99L110.87 7.99Q110.87 6.45 112.52 6.09L112.52 6.09L112.52 6.09Q113.02 5.98 113.61 5.98L113.61 5.98L113.61 5.98Q114.86 5.98 115.56 6.61L115.56 6.61L115.56 6.61Q116.26 7.24 116.26 8.53L116.26 8.53L116.26 12.84L115.30 12.84L115.19 11.72L115.19 11.72Q114.58 12.99 112.97 12.99L112.97 12.99L112.97 12.99Q111.89 12.99 111.24 12.39L111.24 12.39L111.24 12.39Q110.59 11.79 110.59 10.89L110.59 10.89L110.59 10.89Q110.59 10.00 111.31 9.49L111.31 9.49L111.31 9.49Q112.03 8.99 113.11 8.99L113.11 8.99L113.11 8.99Q114.18 8.99 115.16 9.35L115.16 9.35ZM115.16 10.05L115.16 10.05L115.16 10.05Q114.17 9.77 113.43 9.77L113.43 9.77L113.43 9.77Q112.69 9.77 112.22 10.04L112.22 10.04L112.22 10.04Q111.76 10.30 111.76 10.88L111.76 10.88L111.76 10.88Q111.76 12.14 113.19 12.14L113.19 12.14L113.19 12.14Q114.00 12.14 114.58 11.56L114.58 11.56L114.58 11.56Q115.16 10.98 115.16 10.05ZM118.86 12.84L118.86 3.30L119.97 3.30L119.97 12.84L118.86 12.84Z"></path></g><defs data-v-423bf9ae=""><linearGradient data-v-423bf9ae="" gradientTransform="rotate(25)" id="64eec01c-e20f-404a-b1b1-a031aff7be82" x1="0%" y1="0%" x2="100%" y2="0%"><stop data-v-423bf9ae="" offset="0%" style="stop-color: rgb(78, 26, 112); stop-opacity: 1;"></stop><stop data-v-423bf9ae="" offset="100%" style="stop-color: rgb(43, 76, 242); stop-opacity: 1;"></stop></linearGradient></defs><g data-v-423bf9ae="" id="1a4633c8-d437-4969-bda5-cc6eb4fc3669" transform="matrix(2.8125,0,0,2.8125,318,0)" stroke="none" fill="url(#64eec01c-e20f-404a-b1b1-a031aff7be82)"><path d="M0 16.024L15.976 32 32 15.976 16.024 0 0 16.024zm15.989 7.323l-7.336-7.336 14.694-.022-7.358 7.358z"></path></g><!----></svg>